<svg xmlns="http://www.w3.org/2000/svg" version="1.1" xmlns:xlink="http://www.w3.org/1999/xlink" xmlns:svgjs="http://svgjs.dev/svgjs" viewBox="0 0 5.828304072150257 5.155280197155928"><g transform="matrix(1,0,0,1,2.9231693220767654,4.3282781636721435)"><rect width="5.828304072150257" height="5.828304072150257" x="-2.9231693220767654" y="-4.664790101169308" fill="#dddee0"></rect><g transform="matrix(1,0,0,1,0,0)"><path d=" M -2.0047458239944116 -1.9307540210215188 C -2.003773501830391 -1.9437176080871945 -2.0414675588255458 -1.9625897586600884 -2.0514395488760657 -1.9633376987862585 C -2.0574227429063776 -1.9637864628619603 -2.0607883099846185 -1.9590248498745515 -2.0610874860350865 -1.9550360538543436 L -2.063705276476681 -1.9201340886775244 C -2.136002122598187 -1.945612825712221 -2.209071785686895 -1.9741579537746903 -2.2636434317553165 -1.9952988015671254 C -2.289969452790784 -2.0052958319481995 -2.3355412674831832 -2.052837494788719 -2.3445160585286513 -2.053510640902272 C -2.359474043604431 -2.054632551091527 -2.404173697455028 -2.006841956351172 -2.405445195669517 -1.9898895732652888 C -2.405893959745219 -1.983906379234977 -2.388742234952039 -1.9585525168740068 -2.368449325118469 -1.9349686704852895 C -2.380316042325445 -1.9238250165634527 -2.4132237729816834 -1.8861808767398833 -2.4143456831709385 -1.8712228916641038 C -2.4177862077513197 -1.825351737431713 -2.3709432218234787 -1.7145377731972171 -2.3338475169292594 -1.6876880305839075 C -2.302435830014884 -1.665275848066507 -2.196857610153101 -1.60220256140078 -2.09227658929637 -1.5392040687476698 L -2.101476252848259 -1.4165485911262767 C -2.10244857501228 -1.403585004060601 -2.0648293120297416 -1.383715654482655 -2.054857321979222 -1.3829677143564851 C -2.04887412794891 -1.382518950280783 -2.0455085608706693 -1.3872805632681922 -2.045134590807584 -1.392266558293452 L -2.036533279356631 -1.506944443874429 C -1.9578295154596654 -1.4599261756327053 -1.8868789615652646 -1.4164978565070732 -1.8573120846357591 -1.396229660025011 C -1.8325068206936626 -1.3793270306211898 -1.8162775008929177 -1.3550451612778884 -1.8173246170695556 -1.3410843752071608 C -1.8190448793597462 -1.3181487980909654 -1.928138744793575 -1.2541290470393898 -1.9737357633060524 -1.2344844064783418 C -1.9799433393742152 -1.231941573538888 -1.9843061054575082 -1.227254754564096 -1.984904457558444 -1.21927716252368 C -1.9865499258360177 -1.1973387844125365 -1.9430224263253082 -1.1359111295139066 -1.9270672422444766 -1.134714425312035 C -1.8971512720929171 -1.1324706049335251 -1.7474710965233786 -1.2696596899274564 -1.7432078378042104 -1.326500033215419 C -1.739168961122893 -1.3803487794882257 -1.7935158981744168 -1.4847059087756764 -1.8258499900812273 -1.5081900843107454 C -1.8572616769956027 -1.5306022668281456 -1.9389570379077241 -1.5778449171077205 -2.0274832038299753 -1.6276055234857183 L -2.0161893079248103 -1.7781825732485665 C -1.9243224517653494 -1.7462219609362704 -1.8449704185958622 -1.7212168648183068 -1.818046045459459 -1.7191974264776482 C -1.7841412792876916 -1.7166544300486706 -1.710223678240119 -1.7662647944433403 -1.7093261500887151 -1.778231182503964 C -1.7080546518742263 -1.7951835655898476 -1.7476930262183763 -1.8683532265112501 -1.7626510112941558 -1.8694751367005051 C -1.7716258023396236 -1.8701482828140579 -1.8027135998520236 -1.8433985380334432 -1.8156771869176993 -1.844370860197464 C -1.8465903560743104 -1.8466894745885907 -1.922028387236207 -1.8703981956510343 -2.0070644383855383 -1.8998408518649077 M -2.32527075534029 -1.895628981723037 C -2.2571870872768423 -1.8674578237236525 -2.1636250091577454 -1.8313588273659145 -2.0728301460159533 -1.7984758100611833 L -2.0833013077823312 -1.658867949353907 C -2.1910983076920694 -1.719099227029712 -2.2969757036043204 -1.7781837176752315 -2.325545381528774 -1.7983771201446768 C -2.3359910124960264 -1.8061802473188273 -2.3439934813774737 -1.819816980498056 -2.3430959532260696 -1.8317833685586795 C -2.342273219087283 -1.8427525576142512 -2.3279382994639466 -1.8868037787028034 -2.32527075534029 -1.895628981723037 M -1.612314846732671 -2.222175406866042 C -1.616066965349202 -2.2139948441783366 -1.6261817438339483 -2.208732595970155 -1.6361802093411442 -2.2133185187236926 C -1.687990439696613 -2.2370819366283894 -1.8301482277067604 -2.366094196929734 -1.8601436242283478 -2.379851965190348 C -1.8983195834376407 -2.3973618520674926 -1.9603556602350292 -2.2860940437149035 -1.9830794454786558 -2.29651659542749 C -2.0067121821320275 -2.3073560492085794 -2.023182436348103 -2.3314128720673417 -2.042270415952749 -2.340167815505914 C -2.0631762983768858 -2.349756563081493 -2.1135247489824036 -2.316740907376605 -2.1256149089690037 -2.290381316493998 C -2.1360374606815897 -2.2676575312503715 -2.082649137598619 -2.1969632106978096 -2.051744789667287 -2.1827885403686924 C -2.0208404417359547 -2.168613870039575 -1.979697818205438 -2.1959503754677785 -1.979697818205438 -2.1959503754677785 C -1.979697818205438 -2.1959503754677785 -1.9105907136337743 -2.1235472809363904 -1.8679183472174556 -2.0654691512795957 C -1.8679183472174556 -2.0654691512795957 -1.8519401423426223 -2.042738181899082 -1.8410327254256815 -2.037735357077041 C -1.8310342599184857 -2.033149434323503 -1.8077360939239924 -2.045566980832094 -1.801899464964944 -2.058292300568525 C -1.7968966401429025 -2.069199717485466 -1.8090887448332793 -2.0857934688159787 -1.8090887448332793 -2.0857934688159787 C -1.8704661703536667 -2.167853274058797 -1.9304086135551415 -2.233852543017157 -1.9304086135551415 -2.233852543017157 C -1.9304086135551415 -2.233852543017157 -1.906460919537043 -2.2668753828589323 -1.8964624540298474 -2.2622894601053947 C -1.8546506891815742 -2.243111964954236 -1.746766447218712 -2.1353205444417545 -1.675868237258597 -2.1028021830984853 C -1.6404191322785393 -2.086543002426851 -1.5725268132279508 -2.1434168366033255 -1.5537662201452958 -2.1843196500418536 C -1.5237492712130474 -2.2497641515434985 -1.5818666274581452 -2.341330372952271 -1.6498321546649624 -2.4330129073385947 C -1.6498321546649624 -2.4330129073385947 -1.665318310198554 -2.45441802324086 -1.676225727115495 -2.459420848062901 C -1.6871331440324357 -2.4644236728849425 -1.7104313100269293 -2.452006126376351 -1.715851036917474 -2.4401897580496654 C -1.721270763808019 -2.4283733897229793 -1.7086617570491387 -2.4126885898022117 -1.7086617570491387 -2.4126885898022117 C -1.6472843315287515 -2.3306287845593934 -1.5998077846775673 -2.249443949158394 -1.612314846732671 -2.222175406866042 M -1.8247148996253604 -2.7930263004126115 C -1.8292607448095013 -2.7987127133031624 -1.8370664950555355 -2.8067171035420584 -1.8419563526483758 -2.8101940695645764 C -1.8566259254268962 -2.82062496763213 -1.92584164976258 -2.7888573189201677 -1.9374315365043062 -2.7725577936107006 C -1.9420674912009965 -2.766037983486914 -1.9407631301109867 -2.7540672424009633 -1.9316714397427048 -2.7426944166198615 C -1.9177984222618951 -2.724240707345649 -1.8798017082578213 -2.6775904155470696 -1.8337637620793261 -2.6215412629070345 L -1.8499896035177428 -2.5987219274737803 C -1.8592615129111238 -2.5856823072262065 -1.837093360359743 -2.547832960964234 -1.8273136451740628 -2.540879028919198 C -1.8224237875812226 -2.5374020628966805 -1.8156869164968112 -2.539973943141175 -1.8127894448113797 -2.544048824468542 L -1.7930866373504453 -2.571758017494636 C -1.7068425302998433 -2.4687145606473218 -1.6103477442067868 -2.3559282305498526 -1.5883433850390063 -2.3402818834485224 C -1.5475945717653383 -2.311307166594207 -1.4548182196019777 -2.360678701705646 -1.4154126046801088 -2.4160970877578345 C -1.3731095180728081 -2.4755903551373897 -1.4130821923427916 -2.5764079394751715 -1.4627076303503803 -2.679181067784837 C -1.4627076303503803 -2.679181067784837 -1.4739186580741455 -2.7031041289889757 -1.483698373259826 -2.7100580610340117 C -1.4934780884455061 -2.7170119930790473 -1.5186870897718923 -2.709169400897488 -1.5262205161540143 -2.698574709446334 C -1.5337539425361364 -2.6879800179951805 -1.5242998187913928 -2.6702143335383663 -1.5242998187913928 -2.6702143335383663 C -1.4793471774160196 -2.5781260061924045 -1.4484661935143182 -2.488681247635724 -1.465271529289821 -2.4650469359369964 C -1.4814973707282375 -2.4422276005037427 -1.5172826425380148 -2.43331612916056 -1.5433618830331624 -2.4518599479473218 C -1.5621063371390496 -2.465188317700307 -1.6523167950367061 -2.5747331637036455 -1.7252857999113473 -2.667110240555019 L -1.6789262529444426 -2.7323083417928875 C -1.6696543435510616 -2.7453479620404613 -1.6912430017653561 -2.7840122845679076 -1.7018376932165098 -2.7915457109500292 C -1.7067275508093498 -2.7950226769725472 -1.712649445628288 -2.791871302390966 -1.7161264116508057 -2.786981444798126 L -1.7659629246402282 -2.716893485967417 M -1.5830903949059811 -3.013409449714157 C -1.5608734711771763 -3.036440044583341 -1.5909916742086025 -3.0988411170593633 -1.6183405056157583 -3.1252237139873187 C -1.6363331578573082 -3.1425806856504472 -1.6791164315086684 -3.122716358436247 -1.696473403171797 -3.1047237061946973 C -1.719384605767127 -3.0809734052358513 -1.6885721238691758 -3.019292038849491 -1.66122329246202 -2.9929094419215354 C -1.64323064022047 -2.975552470258407 -1.6004473665691097 -2.995416797472607 -1.5830903949059811 -3.013409449714157 M -1.4173833561683027 -2.5687183464606855 C -1.3849965821335128 -2.537475797467054 -1.292283828380446 -2.5730896331425774 -1.2610412793868144 -2.605476407177367 C -1.2110532009970039 -2.6572952456330308 -1.2348897231647364 -2.7636569878665385 -1.269369273338578 -2.871949003360801 C -1.269369273338578 -2.871949003360801 -1.2762026092694518 -2.897993302546147 -1.284839082345396 -2.906324648944449 C -1.2934755554213397 -2.9146559953427507 -1.3195707090529596 -2.910650629324251 -1.3285963343177867 -2.901294450158645 C -1.3376219595826135 -2.8919382709930392 -1.3302214809008988 -2.8736836026782906 -1.3302214809008988 -2.8736836026782906 C -1.3008561550241018 -2.774493494118266 -1.2829298449124862 -2.682169892554082 -1.3030639320417154 -2.661298415953884 C -1.3100067207069668 -2.6541013550572643 -1.3319107739162992 -2.6530002406205493 -1.341266953081905 -2.662025865885376 C -1.3916463793582445 -2.7106253865421364 -1.4973436613436564 -2.925134324772916 -1.5138969014058823 -2.941102738702994 C -1.52757131710946 -2.954294037166972 -1.6006916992610019 -2.9303480622648617 -1.6090230456593035 -2.921711589188918 C -1.6194372286571808 -2.910915997843988 -1.624119190160899 -2.895980160523044 -1.6168204203717316 -2.883381432033044 C -1.5840013835436155 -2.828101138784231 -1.4512095423824163 -2.6013494531873675 -1.4173833561683027 -2.5687183464606855 M -1.2377417392600107 -3.0842090442049277 C -1.2065091845939264 -3.0401576250560507 -1.1443679949572507 -2.992277853225572 -1.102724588735805 -2.9335426276937357 C -1.081902885625082 -2.9041750149278176 -1.0828695057094868 -2.8605852724920977 -1.110605584432854 -2.8409203306653037 C -1.1326312940072925 -2.8253040533322613 -1.1888116320702637 -2.849215757895723 -1.21773066416849 -2.890004108959498 C -1.2368172253533194 -2.9169244206615894 -1.2377417392600107 -3.0842090442049277 -1.2377417392600107 -3.0842090442049277 M -1.0001793089560984 -2.9376004097112567 C -1.0001793089560984 -2.9376004097112567 -0.9997608989010325 -2.9906081915270035 -1.0217393632956844 -3.0216073383354725 C -1.0651179114430236 -3.082789864931135 -1.1464361741024063 -3.131783131387452 -1.202539096372965 -3.2109125324511756 C -1.2129499479283266 -3.225596338834135 -1.284452814241473 -3.222708414146008 -1.2950577855180545 -3.215189465800469 C -1.3064785238159116 -3.2070921368129657 -1.3093271603676433 -3.1903623648540855 -1.3078595754336866 -3.177918643768268 C -1.3032063382070402 -3.112570748750046 -1.2964980178807035 -2.9371284549939527 -1.2964980178807035 -2.9371284549939527 C -1.2964980178807035 -2.9371284549939527 -1.3416498356099538 -2.8573079478811527 -1.3133091841536921 -2.8173353638386534 C -1.2774495843518916 -2.766757808519572 -1.12990731842776 -2.7402007046493684 -1.0483306163002097 -2.798038768845821 C -0.9259655631088843 -2.8847958651404992 -0.8994688004639324 -3.0151335863471287 -0.9124396784902321 -3.1285212237827276 C -0.9124396784902321 -3.1285212237827276 -0.9151374619788346 -3.154802813617603 -0.9220780296824088 -3.1645920178729092 C -0.9290185973859831 -3.1743812221282153 -0.955403795104201 -3.175287500987368 -0.9660087663807826 -3.1677685526418293 C -0.976613737657364 -3.1602496042962906 -0.9735447892934822 -3.1403603721356506 -0.9735447892934822 -3.1403603721356506 C -0.9614631155591746 -3.038600688764594 -0.9766689398805424 -2.978786117741241 -1.0001793089560984 -2.9376004097112567 M -0.7083648074591977 -3.3879451684183435 C -0.6985225260419675 -3.3617320133906854 -0.6850115172695589 -3.2375569247378 -0.6889717773063266 -3.1912069911840053 C -0.694797349398294 -3.1270660314951972 -0.7293037030332888 -3.0767240851798565 -0.7480273851959018 -3.0696938841675494 C -0.7639425150341229 -3.063718213307088 -0.7867694998409359 -3.073306162234233 -0.7948542310050892 -3.0948383967212374 C -0.8257871154592411 -3.1772225982367353 -0.8159217461726311 -3.3785374622901347 -0.7691125407660985 -3.3961129648209027 C -0.754133595036008 -3.4017371256307487 -0.7139889682690435 -3.402924114148434 -0.7083648074591977 -3.3879451684183435 M -0.4603379155597951 -3.347551345936161 C -0.47457503230281445 -3.2460707837242495 -0.4980627002444867 -3.15500306466496 -0.5261482234884063 -3.144457763146499 C -0.5345738804615822 -3.1412941726909605 -0.5566978451671643 -3.149009753401844 -0.5612674758251641 -3.1611801468075424 C -0.589388279874393 -3.2360748754579944 -0.5840784289236589 -3.4153841208495277 -0.5963812806951967 -3.4481505646341004 C -0.6051690319605807 -3.4715551673373666 -0.6638006488027274 -3.4570178530573594 -0.6881414356141243 -3.44787859174136 C -0.6881414356141243 -3.44787859174136 -0.7569774281657095 -3.4861226256478157 -0.8318721568161617 -3.458001821598587 C -0.917064910656051 -3.426014406992589 -0.9507870983376034 -3.1772880230724865 -0.9043877716563755 -3.05371172079924 C -0.885406228923146 -3.003157778960185 -0.7855578147595339 -2.973353514349029 -0.742493345785524 -2.9895229766773355 C -0.6947479562708606 -3.007449989258719 -0.6617765731236355 -3.090328743432264 -0.6617765731236355 -3.090328743432264 C -0.6444448188413601 -3.0669276688095284 -0.5533841559431322 -3.060528006901639 -0.5112558710772528 -3.07634595917933 C -0.44385061529184583 -3.101654682823636 -0.4206031675181353 -3.207586529649832 -0.4042640466324857 -3.3205379932467425 C -0.4042640466324857 -3.3205379932467425 -0.4001783843909406 -3.346639858391747 -0.40439650499832497 -3.357874067689315 C -0.4086146256057093 -3.369108276986883 -0.4338986526862988 -3.3767055116540505 -0.44606904609199727 -3.372135880996051 C -0.45823943949769574 -3.3675662503380512 -0.4603379155597951 -3.347551345936161 -0.4603379155597951 -3.347551345936161 M -0.06347601602375785 -3.2479980919167772 C -0.06767073926720485 -3.3008318339469502 -0.021298645429495944 -3.500127164833318 -0.025018494343496123 -3.5469797285204527 C -0.02794688604175155 -3.583863661635857 -0.08502246571365113 -3.6204611780149314 -0.11492835742884344 -3.618086806367697 C -0.16676523640184357 -3.613971228845825 -0.25978821843191147 -3.547400027758315 -0.25978821843191147 -3.547400027758315 C -0.25978821843191147 -3.547400027758315 -0.31131037969194 -3.6024950992175264 -0.3282570516638823 -3.60114962195076 C -0.34320999752147846 -3.5999624361271434 -0.35561519721370716 -3.5919555003464634 -0.36048833545470305 -3.577524543216594 C -0.3760405505882736 -3.50807579517576 -0.4278209892963627 -3.2000112140126578 -0.4257632005354265 -3.174092774526158 C -0.42362626605291576 -3.1471774719824848 -0.36283270264034234 -3.1269254931260515 -0.3399048523253615 -3.1287458447222645 C -0.32495190646776534 -3.1299330305458812 -0.3227527745119908 -3.1401390982823356 -0.3197942166637666 -3.1534149009118835 C -0.3161082642463878 -3.1827988038993498 -0.2862399993744695 -3.387805844640737 -0.26554517751188456 -3.4556565951750966 C -0.2535997690741183 -3.4947245771712905 -0.19975408091178767 -3.524078314008788 -0.17881995671115303 -3.525740374161852 C -0.16586073696790302 -3.52676926854232 -0.14756858772919468 -3.5111680738371436 -0.14622311046242864 -3.494221401865201 C -0.14321557304259874 -3.4563406056926245 -0.18637658879237567 -3.2924103561367613 -0.1813112626116095 -3.2286111204776846 C -0.17774970514075827 -3.1837522829048956 -0.08470790968905345 -3.149007149445329 -0.03984907211626493 -3.1525687069161803 C 0.03192506800019673 -3.158267198869542 0.08353772771013152 -3.2536513346451863 0.13045062369720362 -3.35769065504909 C 0.13045062369720362 -3.35769065504909 0.14158949184424074 -3.381647399744539 0.1406397431853471 -3.3936097564306156 C 0.13968999452645348 -3.4055721131166927 0.11748953878062735 -3.419859861878398 0.10453031903737725 -3.41883096749793 C 0.09157109929412727 -3.417802073117462 0.08402395476791008 -3.3991462265941763 0.08402395476791008 -3.3991462265941763 C 0.042300779908131636 -3.30555041109145 -0.005435604617980261 -3.2245180867241015 -0.03534149633317263 -3.2221437150768675 C -0.04431326384773032 -3.221431403582697 -0.06244712164328975 -3.2350388721735275 -0.06347601602375785 -3.2479980919167772 M 0.22353440811162054 -3.5788402078894452 C 0.23149915454548547 -3.5780899984225387 0.236137961045961 -3.5846840468187176 0.24224124176748607 -3.5961622855526985 C 0.2507108138309305 -3.6114353451368855 0.31333781616335754 -3.7431428186486575 0.314463130363717 -3.755089938299455 C 0.3154946683807133 -3.7660414646460194 0.3097086609220411 -3.7685953083546653 0.30003405642979986 -3.7725198501009976 L 0.23221804880074756 -3.79899604902109 C 0.2222621157584164 -3.799933810854723 0.21581967501620125 -3.7955185014337376 0.21478813699920501 -3.784566975087173 C 0.21478813699920501 -3.784566975087173 0.18571592050568814 -3.6145440171428 0.18449683012196533 -3.6016013041877697 C 0.18337151592160583 -3.5896541845369723 0.18570186255076213 -3.5824037028572504 0.19366660898462706 -3.581653493390344 M 0.453162354225304 -3.4433300087320418 C 0.4407451062440447 -3.390777064451327 0.4458825899451928 -3.3124980362175753 0.42932625930351376 -3.242427443843289 C 0.4221978391661242 -3.2122581610154715 0.3838037975425721 -3.1802285252415676 0.35460771738661945 -3.187126996342267 C 0.32833124524626206 -3.193335620332897 0.3091461096544585 -3.2513005284439607 0.3206435614889578 -3.2999606620372153 C 0.32823187969972734 -3.332076350208763 0.453162354225304 -3.4433300087320418 0.453162354225304 -3.4433300087320418 M 0.3635846052501227 -3.112050931685906 C 0.4278159815932186 -3.096874295264367 0.5344365855812403 -3.161077463451221 0.5480035787459494 -3.218496421091261 C 0.5652497564976984 -3.291486621481143 0.5492097402418832 -3.4062503695835518 0.5715147968008119 -3.5006510287544654 C 0.5756538794612316 -3.518168676848037 0.5262297315802358 -3.5699205232521747 0.5135780968459895 -3.5729098607291445 C 0.4999532594398784 -3.5761291472428045 0.4855154389372175 -3.567210103620703 0.4771467835024371 -3.557884568450327 C 0.4311807466043849 -3.5112034860733417 0.30395078171190837 -3.390217800831412 0.30395078171190837 -3.390217800831412 C 0.30395078171190837 -3.390217800831412 0.20721798630155608 -3.367862347534757 0.19595048350374678 -3.3201754166133677 C 0.1816936432289676 -3.2598368509577322 0.2662643380636139 -3.1350458353549047 0.3635846052501227 -3.112050931685906 M 1.1769588384684755 -3.395830328795869 C 1.1624932472752256 -3.3754404619147493 1.1584325232262684 -3.2642941146054554 1.1747444167311643 -3.2527216416508558 C 1.1877939315350807 -3.2434636632871756 1.2320948730921724 -3.2402346422040664 1.2401956041603919 -3.2516529676574932 C 1.2482963352286118 -3.26307129311092 1.2672528763931314 -3.332997322220815 1.2805612202909213 -3.351755999751445 C 1.288661951359141 -3.363174325204872 1.3186238413820417 -3.372570342779122 1.3333045455364478 -3.362155117119982 C 1.3716374952729526 -3.3349598056766725 1.474143595259922 -3.234036570168384 1.474143595259922 -3.234036570168384 C 1.474143595259922 -3.234036570168384 1.439392818778253 -3.2317163258017088 1.4132995389461755 -3.2122191273464202 C 1.3917305667032376 -3.1956426549718957 1.3414121674170871 -3.154096792442884 1.285990836894067 -3.1088146091578643 L 1.2174808841735052 -3.157418995567183 C 1.2068781533953232 -3.1649411029876733 1.170446721654692 -3.1429695126645365 1.1646604851773923 -3.1348135659120886 C 1.1611887432910124 -3.12991999786062 1.1635308457240463 -3.1245800955962357 1.1676088191002703 -3.1216869773575855 L 1.239381150521811 -3.0707680963573467 C 1.1614705714879079 -3.0058840330243375 1.08332302142649 -2.9423941880143034 1.065804414717662 -2.9315268783664923 C 1.0398158164782847 -2.9156337112323985 1.0077211872077512 -2.9187856585649214 0.9987496457800584 -2.9251505186899514 C 0.9799909682494284 -2.938458862587741 0.9814450109957229 -3.0649416114497576 0.9881457739652124 -3.114136121058318 C 0.989170731825858 -3.1207655600529765 0.987407253040554 -3.1269210569926056 0.9808824956385958 -3.1315500461744454 C 0.9629394127832105 -3.1442797664245052 0.8878609865279737 -3.138691393581095 0.8786030081642939 -3.1256418787771785 C 0.8612442987323943 -3.101174038519835 0.9015236236341536 -2.902170078796772 0.9480125201231062 -2.8691885308761624 C 0.9830830911586319 -2.844307714023773 1.1037796035433485 -2.834697724525031 1.1405802957463087 -2.8502768468810236 C 1.1552057842164867 -2.857066183152611 1.2447164440471037 -2.929659859025152 1.3348057275254508 -3.003069129572938 L 1.374769866612445 -2.9747165708341683 C 1.3853725973906272 -2.9671944634136787 1.4209884344560133 -2.9897446773845453 1.4267746709333131 -2.997900624136993 C 1.430246412819693 -3.0027941921884618 1.427904310386659 -3.008134094452846 1.42464193168568 -3.010448589043766 L 1.3814154138977064 -3.0411156423734553 C 1.4481998541899257 -3.0955016565209825 1.5081454923020852 -3.143704565886767 1.527978593601833 -3.157834254235557 C 1.5509417841677458 -3.1746476976375964 1.6205480187237842 -3.1828922176921415 1.625755631553354 -3.1902325697693446 C 1.6344349862693037 -3.202466489898016 1.6198256060897285 -3.263101183026362 1.6059604966105672 -3.2729377850377714 C 1.5969889551828746 -3.2793026451628013 1.5579508421395811 -3.272667456392387 1.5489793007118884 -3.279032316517417 C 1.5155399190268524 -3.3027558860743467 1.4281608574072047 -3.3990777402429093 1.397168259747903 -3.421065438856649 C 1.3547573366351742 -3.4511538685386083 1.204154149911785 -3.434163278532374 1.1769588384684755 -3.395830328795869 M 1.6843171038136324 -2.3859348104828304 C 1.6843171038136324 -2.3859348104828304 1.711057998739697 -2.3890851340460815 1.720507974796204 -2.396480940461304 C 1.729957950852711 -2.4038767468765263 1.728998940500146 -2.431062778200419 1.7203704996823865 -2.442087750266344 C 1.7129746932671641 -2.451537726322851 1.693252874370987 -2.4475314987423977 1.693252874370987 -2.4475314987423977 C 1.693252874370987 -2.4475314987423977 1.587111161449892 -2.4241448192394004 1.5433526401598263 -2.4800571775737335 C 1.537189468147141 -2.4879321576208224 1.5330464285417016 -2.4948484588597624 1.53047838494568 -2.5029973945012394 C 1.6021754036970615 -2.518474393634277 1.672776600070892 -2.5483319064339702 1.7145139943204646 -2.5809967181012023 C 1.7633388706124173 -2.6192083845798515 1.7536476500178981 -2.7500368227857264 1.7061912255202212 -2.810674169148313 C 1.6402452849844882 -2.8949364556521666 1.4272427671500827 -2.8539495382735227 1.3177805444955435 -2.7682814472971966 C 1.2610806881565015 -2.723906608805862 1.2799822979915942 -2.592667402980614 1.3231245020803915 -2.5375425426509897 C 1.34900982453367 -2.504467626453215 1.3966711355244101 -2.4922447203076237 1.451659515373464 -2.4933752430080447 C 1.4595004581865145 -2.4817339537408514 1.468128899004274 -2.4707089816749264 1.4755247054194964 -2.4612590056184196 C 1.5537969899806 -2.3612467590203874 1.6843171038136324 -2.3859348104828304 1.6843171038136324 -2.3859348104828304 M 1.3728386565347532 -2.658990073901682 C 1.461038433062152 -2.7280176004437577 1.6454511043666873 -2.768216688273277 1.6768832816313823 -2.728054290033122 C 1.689209625656753 -2.7123043299389438 1.6916752260062429 -2.6799481741889695 1.674350269902647 -2.666389195761062 C 1.636550365676619 -2.6368059701001725 1.5706741573310419 -2.6106463605080905 1.5103788410309205 -2.595203730153507 C 1.4930535533829086 -2.610850915456738 1.4354971299378332 -2.6178693283977936 1.4197471698436548 -2.605542984372423 C 1.4126596878012745 -2.5999961295610063 1.4102287877746549 -2.591744419128582 1.4104343373565496 -2.5817465318832995 C 1.3884184304587386 -2.582294111527659 1.37191500959389 -2.587155911580899 1.365135520379936 -2.5958183896326967 C 1.3528091763545653 -2.611568349726875 1.3531512064170303 -2.6435821438699687 1.3728386565347532 -2.658990073901682 M 1.6673885829688802 -2.1005404983229434 C 1.6637163498328826 -2.1087572314812544 1.6664349091533492 -2.119830145967563 1.6764775830135068 -2.12431843091156 C 1.7285168930161414 -2.1475759074395433 1.919255969667109 -2.169292367517932 1.9493839912475817 -2.1827572223499225 C 1.987728745986365 -2.1998943103179105 1.945039159687636 -2.319921803925181 1.967863418460721 -2.3301224515251735 C 1.9916006475847299 -2.340731125029166 2.020545294917811 -2.3372372173653075 2.0397176722872024 -2.3458057613493017 C 2.060715990358441 -2.355190357141295 2.069121720484005 -2.41480867396638 2.0572889692680136 -2.4412848141431587 C 2.0470883216680207 -2.4641090729162443 1.9587395463280068 -2.47062780714305 1.9276985543966108 -2.45675492640706 C 1.8966575624652147 -2.4428820456710696 1.8900574213091939 -2.393928617428294 1.8900574213091939 -2.393928617428294 C 1.8900574213091939 -2.393928617428294 1.7900542202253271 -2.389762111340487 1.7182561814771622 -2.3960104416708248 C 1.7182561814771622 -2.3960104416708248 1.6906325303990044 -2.3989994048877596 1.6796768861879234 -2.394103094039763 C 1.6696342123277659 -2.3896148090957663 1.6635952306969852 -2.3639140172623794 1.669307593352981 -2.3511324323494516 C 1.6742039042009778 -2.3401767881383706 1.6947176295575963 -2.338391550901131 1.6947176295575963 -2.338391550901131 C 1.7968782304366893 -2.330378335065858 1.8860227058523988 -2.331882496911515 1.8860227058523988 -2.331882496911515 C 1.8860227058523988 -2.331882496911515 1.895039979205 -2.2920994756425803 1.8849973053448423 -2.2876111906985837 C 1.8430006692023655 -2.268841999114597 1.6908205361083328 -2.2588817234415792 1.6196088487363065 -2.227055702929602 C 1.5840030050502936 -2.2111426926736133 1.5819522040351806 -2.1226000802477514 1.6003133697151675 -2.0815164144561975 C 1.6296912348031467 -2.015782549189712 1.7368450650731602 -1.9990476557492043 1.8505835248854854 -1.9896368768483874 C 1.8505835248854854 -1.9896368768483874 1.8768861797087202 -1.9871528580783764 1.8878418239198012 -1.992049168926373 C 1.8987974681308821 -1.9969454797743695 1.9048364497616628 -2.0226462716077567 1.8995321130096665 -2.034514886169761 C 1.8942277762576705 -2.046383500731765 1.8741220768050515 -2.0472557676180814 1.8741220768050515 -2.0472557676180814 C 1.7719614759259585 -2.0552689834533546 1.6796293600888714 -2.073151387795241 1.6673885829688802 -2.1005404983229434 M 2.106375499187429 -1.6256299100303153 C 2.1309730297187044 -1.6300977385591384 2.127137549798286 -1.6903828038222704 2.1224910081283097 -1.7159642355747968 C 2.1224910081283097 -1.7159642355747968 2.1724107112045723 -1.7768659863277747 2.1581136599123383 -1.8555780840278564 C 2.141850764067422 -1.9451130951616995 1.9031417303737477 -2.0227017362957747 1.7732667691686126 -1.9991116016635886 C 1.7201361032210574 -1.9894610920413305 1.6729835169979357 -1.8965383627848613 1.6812043214909702 -1.8512789066073143 C 1.6903186916897694 -1.801099944323512 1.765264108196901 -1.757796543249548 1.765264108196901 -1.757796543249548 C 1.765264108196901 -1.757796543249548 1.7278778196791817 -1.7621857836018038 1.682084181967996 -1.7680970224885895 C 1.6301278777217638 -1.824723363082636 1.5808542284826455 -1.8777715250739844 1.5432047649777467 -1.9115874665482846 C 1.5150349295132324 -1.937978002160549 1.4864134164712863 -1.9388774415357732 1.4608319847187596 -1.934230899865797 C 1.427379343196225 -1.9281546530665976 1.377634437481476 -1.8439083216602348 1.387106233962581 -1.7917615569339305 C 1.394076046467545 -1.7533894093051405 1.4177702218439567 -1.7068750453598833 1.4524718974647421 -1.6948836438942585 C 1.4893200886691824 -1.6822657674896886 1.5977220624784882 -1.667399292647058 1.7157843353591515 -1.6553038504372077 C 1.7763247440501835 -1.5849912703713134 1.8407104221107335 -1.5102953236226226 1.9434741214695328 -1.4761102085270974 C 1.9434741214695328 -1.4761102085270974 1.9684271203932944 -1.4674298948973514 1.9802339350483065 -1.4695744525911867 C 1.9920407497033188 -1.4717190102850217 2.0040301932791236 -1.4952403461897399 2.0017069224441357 -1.5080310620660033 C 1.9995623647503007 -1.5198378767210157 1.980065011356253 -1.5264600523927732 1.980065011356253 -1.5264600523927732 C 1.904579539646023 -1.5503544776983562 1.842603552156308 -1.5949972483860575 1.7903781992534367 -1.647509270953947 C 1.9415337294845088 -1.6322775382697312 2.087681375983659 -1.6222343603484097 2.106375499187429 -1.6256299100303153 M 2.0860139484349145 -1.8048766875493345 C 2.088873358693361 -1.789134268009318 2.0828737421809094 -1.7494227507667912 2.067131322640893 -1.7465633405083445 C 2.039582088445864 -1.7415593725560625 1.9149899332987497 -1.7504360203353402 1.8700918191831482 -1.7626080928319379 C 1.8080215803983068 -1.7797919648400968 1.7646493805968748 -1.8227320659622956 1.7610751177738164 -1.842410090387316 C 1.7580369943742167 -1.8591364111485835 1.7715464785947312 -1.8798847565307015 1.794176206683505 -1.8839951587772188 C 1.8807595141535949 -1.8997219151986764 2.0770782913772683 -1.8540717486118856 2.0860139484349145 -1.8048766875493345 M 1.5003412941422953 -1.7950511079817908 C 1.4778922370844945 -1.8011371442300896 1.4595614138324906 -1.8293148112538833 1.4568807167151967 -1.8440733295726486 C 1.4545574458802086 -1.8568640454489118 1.4669926933639859 -1.872335458442469 1.4787995080189982 -1.8744800161363042 C 1.506348742214027 -1.8794839840885862 1.551510031316808 -1.8378852104699441 1.607132891791405 -1.7778594044143523 C 1.561339254080219 -1.783770643301138 1.5194812212540372 -1.7903967347525351 1.5003412941422953 -1.7950511079817908 M 1.9585343087194251 -1.377532845321749 C 2.004899014936635 -1.3656874235313774 2.1200852826165395 -1.2995502650047714 2.117710327918063 -1.2606226451163145 C 2.1168577800775847 -1.2466486277204583 2.104903854591722 -1.231348181142713 2.0909298371958656 -1.2322007289831916 C 2.063979946503857 -1.233844928389829 1.9526882663847145 -1.2817110117501629 1.9585343087194251 -1.377532845321749 M 1.8837875529285384 -1.5153404013509362 C 1.8059323131516247 -1.5200903107478887 1.733684497478155 -1.4032731325144956 1.7283256253380033 -1.3154364517405415 C 1.723393027118091 -1.2345867796645158 1.779979985433909 -1.1439726739824316 1.9045996276419745 -1.0682432558152906 C 1.9045996276419745 -1.0682432558152906 1.926826186643328 -1.0548649123094844 1.9388039158397765 -1.0541341570176455 C 1.9507816450362248 -1.0534034017258067 1.968030772392207 -1.0733900874304727 1.9688224239583658 -1.0863659607266252 C 1.9696140755245246 -1.0993418340227774 1.9521346519244114 -1.1084231197581678 1.9521346519244114 -1.1084231197581678 C 1.82833046499309 -1.181097209351877 1.7962099389753137 -1.2622037553783312 1.7994983377885885 -1.3161035367623484 C 1.8021168775843444 -1.3590237330496215 1.841666749069149 -1.399690767187058 1.8656222074620457 -1.3982292566033803 C 1.8975628186525744 -1.3962805758251435 1.9140440981529836 -1.3872601863640728 1.9140440981529836 -1.3872601863640728 C 1.9140440981529836 -1.3872601863640728 1.8970861633154519 -1.3392036733190544 1.8943458309710564 -1.2942871888323735 C 1.8903875731402624 -1.2294078223516118 2.0461932675364323 -1.1557831960793696 2.0961004725216337 -1.1527383823633746 C 2.1390206688089064 -1.1501198425676187 2.194530331031539 -1.2389042860243937 2.197636041021854 -1.289809635109299 C 2.203299394533605 -1.382637036381773 1.996577836195093 -1.508459122352787 1.8837875529285384 -1.5153404013509362" fill="#000000" fill-rule="nonzero"></path></g><g transform="matrix(1,0,0,1,0,0)"><path d=" M -1.3440416541466347 0.14615384615384613 Q -1.3440416541466347 0.12115384615384611 -1.3353878079927883 0.09711538461538458 Q -1.3267339618389422 0.07307692307692304 -1.310003192608173 0.053269230769230735 Q -1.2932724233774038 0.03346153846153843 -1.2690416541466345 0.021730769230769165 Q -1.2448108849158652 0.009999999999999953 -1.2140416541466346 0.009999999999999953 Q -1.177503192608173 0.009999999999999953 -1.1513493464543267 0.02673076923076917 Q -1.1251955003004808 0.04346153846153841 -1.112503192608173 0.06961538461538458 L -1.1398108849158652 0.08730769230769228 Q -1.1478878079927883 0.06999999999999995 -1.1603878079927883 0.059807692307692256 Q -1.1728878079927885 0.04961538461538456 -1.1873108849158653 0.04538461538461533 Q -1.2017339618389422 0.041153846153846096 -1.215580115685096 0.041153846153846096 Q -1.2382724233774038 0.041153846153846096 -1.2557724233774037 0.05038461538461533 Q -1.2732724233774038 0.05961538461538457 -1.2851955003004807 0.07499999999999996 Q -1.2971185772235576 0.09038461538461534 -1.3030801156850962 0.10942307692307687 Q -1.3090416541466345 0.12846153846153843 -1.3090416541466345 0.14769230769230765 Q -1.3090416541466345 0.1688461538461538 -1.30192626953125 0.18846153846153843 Q -1.2948108849158653 0.20807692307692305 -1.2821185772235577 0.22307692307692306 Q -1.26942626953125 0.23807692307692307 -1.2521185772235577 0.2469230769230769 Q -1.2348108849158654 0.25576923076923075 -1.21442626953125 0.25576923076923075 Q -1.2001955003004807 0.25576923076923075 -1.1851955003004808 0.25076923076923074 Q -1.1701955003004807 0.24576923076923074 -1.1571185772235577 0.23519230769230767 Q -1.1440416541466345 0.2246153846153846 -1.1363493464543268 0.20769230769230768 L -1.1075031926081729 0.22346153846153843 Q -1.1159647310697114 0.24384615384615382 -1.1336570387620193 0.25807692307692304 Q -1.1513493464543267 0.2723076923076923 -1.173080115685096 0.2796153846153846 Q -1.1948108849158654 0.2869230769230769 -1.2159647310697115 0.2869230769230769 Q -1.2440416541466346 0.2869230769230769 -1.267503192608173 0.2748076923076923 Q -1.2909647310697114 0.26269230769230767 -1.308080115685096 0.2425 Q -1.3251955003004807 0.2223076923076923 -1.3346185772235577 0.19711538461538458 Q -1.3440416541466347 0.1719230769230769 -1.3440416541466347 0.14615384615384613 M -0.9632697941706729 0.11346153846153842 Q -0.9886544095552884 0.11384615384615382 -1.0080774864783653 0.1263461538461538 Q -1.0275005634014422 0.1388461538461538 -1.0355774864783653 0.16076923076923072 L -1.0355774864783653 0.2846153846153846 L -1.0694236403245192 0.2846153846153846 L -1.0694236403245192 0.08384615384615379 L -1.0378851787860577 0.08384615384615379 L -1.0378851787860577 0.13038461538461535 Q -1.0275005634014422 0.10961538461538459 -1.0103851787860576 0.0967307692307692 Q -0.993269794170673 0.08384615384615379 -0.9744236403245191 0.08230769230769228 Q -0.9705774864783653 0.08230769230769228 -0.9678851787860576 0.08230769230769228 Q -0.9651928710937498 0.08230769230769228 -0.9632697941706729 0.08269230769230765 L -0.9632697941706729 0.11346153846153842 M -0.945586688701923 0.22653846153846152 Q -0.945586688701923 0.2073076923076923 -0.9346251502403845 0.19326923076923075 Q -0.923663611778846 0.1792307692307692 -0.9044328425480768 0.17153846153846153 Q -0.8852020733173075 0.1638461538461538 -0.8598174579326922 0.1638461538461538 Q -0.8463559194711536 0.1638461538461538 -0.8313559194711537 0.16596153846153844 Q -0.8163559194711537 0.16807692307692307 -0.8048174579326921 0.17230769230769227 L -0.8048174579326921 0.15769230769230766 Q -0.8048174579326921 0.13461538461538458 -0.818663611778846 0.1213461538461538 Q -0.8325097656249998 0.10807692307692304 -0.8578943810096152 0.10807692307692304 Q -0.8744328425480767 0.10807692307692304 -0.8896251502403845 0.1140384615384615 Q -0.9048174579326922 0.11999999999999997 -0.9217405348557691 0.13115384615384612 L -0.9340482271634614 0.10730769230769227 Q -0.9144328425480768 0.0938461538461538 -0.8948174579326922 0.08711538461538457 Q -0.8752020733173076 0.08038461538461533 -0.8540482271634614 0.08038461538461533 Q -0.815586688701923 0.08038461538461533 -0.7932789963942306 0.10173076923076918 Q -0.7709713040865382 0.12307692307692306 -0.7709713040865382 0.16115384615384612 L -0.7709713040865382 0.24615384615384614 Q -0.7709713040865382 0.2523076923076923 -0.7684713040865383 0.25519230769230766 Q -0.7659713040865384 0.25807692307692304 -0.7602020733173075 0.25846153846153846 L -0.7602020733173075 0.2846153846153846 Q -0.7652020733173075 0.28538461538461535 -0.7688559194711537 0.2857692307692308 Q -0.7725097656249998 0.28615384615384615 -0.7748174579326921 0.28615384615384615 Q -0.786740534855769 0.28615384615384615 -0.7927020733173076 0.2796153846153846 Q -0.7986636117788459 0.27307692307692305 -0.7994328425480768 0.26576923076923076 L -0.8002020733173075 0.2530769230769231 Q -0.8132789963942306 0.26999999999999996 -0.8344328425480767 0.2792307692307692 Q -0.8555866887019229 0.28846153846153844 -0.8763559194711537 0.28846153846153844 Q -0.8963559194711537 0.28846153846153844 -0.9121251502403844 0.2801923076923077 Q -0.9278943810096152 0.27192307692307693 -0.9367405348557691 0.2578846153846154 Q -0.945586688701923 0.24384615384615382 -0.945586688701923 0.22653846153846152 M -0.8148174579326921 0.24076923076923074 Q -0.8102020733173075 0.23538461538461536 -0.8075097656249999 0.2298076923076923 Q -0.8048174579326921 0.2242307692307692 -0.8048174579326921 0.22038461538461535 L -0.8048174579326921 0.19538461538461538 Q -0.816740534855769 0.19076923076923075 -0.8298174579326921 0.18826923076923074 Q -0.8428943810096152 0.18576923076923074 -0.8555866887019229 0.18576923076923074 Q -0.8813559194711537 0.18576923076923074 -0.8973174579326921 0.19596153846153844 Q -0.9132789963942306 0.20615384615384613 -0.9132789963942306 0.22384615384615383 Q -0.9132789963942306 0.23346153846153844 -0.9080866887019229 0.2425 Q -0.9028943810096153 0.25153846153846154 -0.8927020733173076 0.2573076923076923 Q -0.8825097656249998 0.26307692307692304 -0.8675097656249998 0.26307692307692304 Q -0.8517405348557691 0.26307692307692304 -0.8375097656249998 0.2567307692307692 Q -0.8232789963942306 0.25038461538461537 -0.8148174579326921 0.24076923076923074 M -0.7075144606370191 0.2846153846153846 L -0.7075144606370191 0.11038461538461536 L -0.7348221529447114 0.11038461538461536 L -0.7348221529447114 0.08384615384615379 L -0.7075144606370191 0.08384615384615379 L -0.7075144606370191 0.07961538461538459 Q -0.7075144606370191 0.054999999999999966 -0.7000144606370191 0.03711538461538458 Q -0.692514460637019 0.019230769230769162 -0.6786683067908652 0.009615384615384581 Q -0.6648221529447114 -5.551115123125783e-17 -0.6459759990985575 -5.551115123125783e-17 Q -0.6340529221754806 -5.551115123125783e-17 -0.6225144606370191 0.003269230769230691 Q -0.6109759990985575 0.006538461538461493 -0.6017452298677883 0.012307692307692242 L -0.6102067683293267 0.037307692307692264 Q -0.6155913837139422 0.03346153846153843 -0.6234759990985576 0.031153846153846088 Q -0.6313606144831729 0.0288461538461538 -0.6390529221754806 0.0288461538461538 Q -0.6555913837139422 0.0288461538461538 -0.6646298452524038 0.04173076923076918 Q -0.6736683067908652 0.054615384615384566 -0.6736683067908652 0.07846153846153842 L -0.6736683067908652 0.08384615384615379 L -0.6202067683293268 0.08384615384615379 L -0.6202067683293268 0.11038461538461536 L -0.6736683067908652 0.11038461538461536 L -0.6736683067908652 0.2846153846153846 L -0.7075144606370191 0.2846153846153846 M -0.4825076998197114 0.2746153846153846 Q -0.4867384690504807 0.2765384615384615 -0.494046161358173 0.2796153846153846 Q -0.5013538536658653 0.2826923076923077 -0.5109692382812498 0.285 Q -0.5205846228966345 0.2873076923076923 -0.5313538536658653 0.2873076923076923 Q -0.5436615459735576 0.2873076923076923 -0.554046161358173 0.28288461538461535 Q -0.5644307767427884 0.2784615384615384 -0.5705846228966345 0.2690384615384615 Q -0.5767384690504807 0.2596153846153846 -0.5767384690504807 0.24538461538461537 L -0.5767384690504807 0.11038461538461536 L -0.604046161358173 0.11038461538461536 L -0.604046161358173 0.08384615384615379 L -0.5767384690504807 0.08384615384615379 L -0.5767384690504807 0.016923076923076874 L -0.5428923152043268 0.016923076923076874 L -0.5428923152043268 0.08384615384615379 L -0.4978923152043268 0.08384615384615379 L -0.4978923152043268 0.11038461538461536 L -0.5428923152043268 0.11038461538461536 L -0.5428923152043268 0.235 Q -0.542123084435096 0.24576923076923074 -0.5355846228966346 0.25096153846153846 Q -0.529046161358173 0.2561538461538461 -0.5202000075120191 0.2561538461538461 Q -0.5102000075120191 0.2561538461538461 -0.5017384690504807 0.25269230769230766 Q -0.4932769305889422 0.2492307692307692 -0.4905846228966345 0.24769230769230768 L -0.4825076998197114 0.2746153846153846 M -0.450973182091346 0.2846153846153846 L -0.450973182091346 0.08384615384615379 L -0.41712702824519216 0.08384615384615379 L -0.41712702824519216 0.2846153846153846 L -0.450973182091346 0.2846153846153846 M -0.450973182091346 0.0461538461538461 L -0.450973182091346 0.003846153846153777 L -0.41712702824519216 0.003846153846153777 L -0.41712702824519216 0.0461538461538461 L -0.450973182091346 0.0461538461538461 M -0.18828838641826906 0.2846153846153846 L -0.2221345402644229 0.2846153846153846 L -0.2221345402644229 0.17230769230769227 Q -0.2221345402644229 0.14038461538461536 -0.23194223257211521 0.12557692307692303 Q -0.2417499248798075 0.11076923076923073 -0.2617499248798075 0.11076923076923073 Q -0.27559607872596137 0.11076923076923073 -0.2892499248798075 0.11769230769230765 Q -0.3029037710336537 0.12461538461538457 -0.3134806941105768 0.1363461538461538 Q -0.3240576171874998 0.14807692307692305 -0.32867300180288445 0.16346153846153844 L -0.32867300180288445 0.2846153846153846 L -0.3625191556490383 0.2846153846153846 L -0.3625191556490383 0.08384615384615379 L -0.33174992487980753 0.08384615384615379 L -0.33174992487980753 0.1269230769230769 Q -0.32367300180288444 0.11269230769230765 -0.31098069411057677 0.10230769230769227 Q -0.29828838641826905 0.09192307692307689 -0.2821345402644229 0.08615384615384611 Q -0.26598069411057673 0.08038461538461533 -0.24828838641826906 0.08038461538461533 Q -0.23098069411057676 0.08038461538461533 -0.21924992487980752 0.0867307692307692 Q -0.20751915564903828 0.09307692307692303 -0.20078838641826904 0.1044230769230769 Q -0.1940576171874998 0.11576923076923074 -0.19117300180288443 0.13115384615384612 Q -0.18828838641826906 0.1465384615384615 -0.18828838641826906 0.16461538461538458 L -0.18828838641826906 0.2846153846153846 M -0.055585749699519044 0.2869230769230769 Q -0.07597036508413443 0.2869230769230769 -0.09308574969951905 0.27865384615384614 Q -0.11020113431490366 0.2703846153846154 -0.12250882662259599 0.25596153846153846 Q -0.1348165189302883 0.24153846153846154 -0.14154728816105752 0.22307692307692306 Q -0.14827805739182676 0.2046153846153846 -0.14827805739182676 0.18461538461538457 Q -0.14827805739182676 0.16346153846153844 -0.14154728816105752 0.1446153846153846 Q -0.1348165189302883 0.12576923076923074 -0.12231651893028829 0.11134615384615382 Q -0.10981651893028829 0.09692307692307689 -0.09289344200721136 0.08865384615384611 Q -0.07597036508413443 0.08038461538461533 -0.05520113431490366 0.08038461538461533 Q -0.03020113431490365 0.08038461538461533 -0.01154728816105749 0.09269230769230766 Q 0.007106557992788642 0.10499999999999995 0.01979886568509634 0.1238461538461538 L 0.01979886568509634 0.08384615384615379 L 0.04979886568509634 0.08384615384615379 L 0.04979886568509634 0.2823076923076923 Q 0.04979886568509634 0.31076923076923074 0.03614501953125018 0.3303846153846154 Q 0.022491173377404028 0.35 -0.0007780573918267364 0.3601923076923077 Q -0.0240472881610575 0.37038461538461537 -0.05250882662259597 0.37038461538461537 Q -0.08635498046874981 0.37038461538461537 -0.10789344200721136 0.35846153846153844 Q -0.1294319035456729 0.3465384615384615 -0.14366267277644212 0.3261538461538461 L -0.12404728816105752 0.3088461538461538 Q -0.1121242112379806 0.32653846153846156 -0.09308574969951905 0.3353846153846154 Q -0.07404728816105752 0.34423076923076923 -0.05250882662259597 0.34423076923076923 Q -0.03404728816105751 0.34423076923076923 -0.018470365084134438 0.3375 Q -0.0028934420072113387 0.33076923076923076 0.006529634915865584 0.3169230769230769 Q 0.015952711838942507 0.3030769230769231 0.015952711838942507 0.2823076923076923 L 0.015952711838942507 0.2469230769230769 Q 0.004798865685096354 0.2653846153846154 -0.014624211237980578 0.27615384615384614 Q -0.03404728816105751 0.2869230769230769 -0.055585749699519044 0.2869230769230769 M -0.04520113431490366 0.2592307692307692 Q -0.03443190354567288 0.2592307692307692 -0.0244319035456729 0.2553846153846154 Q -0.014431903545672892 0.25153846153846154 -0.005970365084134427 0.24519230769230768 Q 0.002491173377404038 0.23884615384615382 0.008260404146634814 0.23076923076923075 Q 0.01402963491586559 0.22269230769230766 0.015952711838942507 0.21423076923076922 L 0.015952711838942507 0.15653846153846152 Q 0.010568096454327103 0.14269230769230767 0.0005680964543271216 0.13211538461538458 Q -0.009431903545672887 0.12153846153846151 -0.022124211237980584 0.11557692307692305 Q -0.03481651893028828 0.10961538461538459 -0.04827805739182674 0.10961538461538459 Q -0.06366267277644212 0.10961538461538459 -0.07577805739182675 0.11615384615384611 Q -0.08789344200721136 0.12269230769230766 -0.09635498046874982 0.13365384615384612 Q -0.10481651893028829 0.1446153846153846 -0.10943190354567289 0.15807692307692306 Q -0.11404728816105753 0.17153846153846153 -0.11404728816105753 0.18538461538461537 Q -0.11404728816105753 0.20038461538461536 -0.10866267277644213 0.21365384615384614 Q -0.10327805739182674 0.2269230769230769 -0.09404728816105751 0.23730769230769228 Q -0.08481651893028828 0.24769230769230768 -0.07212421123798059 0.25346153846153846 Q -0.05943190354567289 0.2592307692307692 -0.04520113431490366 0.2592307692307692 M 0.4267273888221156 0.011538461538461497 L 0.4267273888221156 0.2846153846153846 L 0.392112004206731 0.2846153846153846 L 0.392112004206731 0.16038461538461535 L 0.24172738882211556 0.16038461538461535 L 0.24172738882211556 0.2846153846153846 L 0.20711200420673093 0.2846153846153846 L 0.20711200420673093 0.011538461538461497 L 0.24172738882211556 0.011538461538461497 L 0.24172738882211556 0.12961538461538458 L 0.392112004206731 0.12961538461538458 L 0.392112004206731 0.011538461538461497 L 0.4267273888221156 0.011538461538461497 M 0.5721334134615387 0.28846153846153844 Q 0.5494411057692309 0.28846153846153844 0.5307872596153848 0.2801923076923077 Q 0.5121334134615386 0.27192307692307693 0.49847956730769244 0.2575 Q 0.4848257211538463 0.24307692307692305 0.4773257211538463 0.2242307692307692 Q 0.4698257211538463 0.20538461538461536 0.4698257211538463 0.1842307692307692 Q 0.4698257211538463 0.15576923076923074 0.4829026442307694 0.13230769230769227 Q 0.49597956730769244 0.10884615384615381 0.5192487980769233 0.09461538461538457 Q 0.542518028846154 0.08038461538461533 0.572518028846154 0.08038461538461533 Q 0.6029026442307694 0.08038461538461533 0.6254026442307694 0.09480769230769226 Q 0.6479026442307694 0.10923076923076919 0.6604026442307694 0.13249999999999998 Q 0.6729026442307694 0.15576923076923074 0.6729026442307694 0.18269230769230765 Q 0.6729026442307694 0.18653846153846151 0.6727103365384617 0.19019230769230766 Q 0.6725180288461541 0.19384615384615383 0.6721334134615387 0.19576923076923075 L 0.5055949519230771 0.19576923076923075 Q 0.5071334134615386 0.21538461538461537 0.5165564903846156 0.23057692307692307 Q 0.5259795673076925 0.24576923076923074 0.5409795673076925 0.2544230769230769 Q 0.5559795673076925 0.26307692307692304 0.5732872596153847 0.26307692307692304 Q 0.5917487980769233 0.26307692307692304 0.608094951923077 0.25384615384615383 Q 0.624441105769231 0.2446153846153846 0.6305949519230771 0.2296153846153846 L 0.6598257211538463 0.23769230769230767 Q 0.6532872596153848 0.2523076923076923 0.6404026442307694 0.26384615384615384 Q 0.627518028846154 0.2753846153846154 0.6100180288461541 0.2819230769230769 Q 0.592518028846154 0.28846153846153844 0.5721334134615387 0.28846153846153844 M 0.504441105769231 0.17230769230769227 L 0.6413641826923079 0.17230769230769227 Q 0.6398257211538463 0.15269230769230765 0.6302103365384617 0.13769230769230767 Q 0.6205949519230771 0.12269230769230766 0.6055949519230771 0.11423076923076919 Q 0.5905949519230771 0.10576923076923073 0.572518028846154 0.10576923076923073 Q 0.5548257211538463 0.10576923076923073 0.5398257211538463 0.11423076923076919 Q 0.5248257211538463 0.12269230769230766 0.5154026442307694 0.13769230769230767 Q 0.5059795673076924 0.15269230769230765 0.504441105769231 0.17230769230769227 M 0.6948270357572117 0.22653846153846152 Q 0.6948270357572117 0.2073076923076923 0.7057885742187502 0.19326923076923075 Q 0.7167501126802887 0.1792307692307692 0.7359808819110579 0.17153846153846153 Q 0.7552116511418272 0.1638461538461538 0.7805962665264425 0.1638461538461538 Q 0.794057804987981 0.1638461538461538 0.8090578049879811 0.16596153846153844 Q 0.824057804987981 0.16807692307692307 0.8355962665264426 0.17230769230769227 L 0.8355962665264426 0.15769230769230766 Q 0.8355962665264426 0.13461538461538458 0.8217501126802886 0.1213461538461538 Q 0.8079039588341348 0.10807692307692304 0.7825193434495195 0.10807692307692304 Q 0.765980881911058 0.10807692307692304 0.7507885742187502 0.1140384615384615 Q 0.7355962665264425 0.11999999999999997 0.7186731896033656 0.13115384615384612 L 0.7063654972956733 0.10730769230769227 Q 0.7259808819110579 0.0938461538461538 0.7455962665264425 0.08711538461538457 Q 0.7652116511418272 0.08038461538461533 0.7863654972956733 0.08038461538461533 Q 0.8248270357572118 0.08038461538461533 0.8471347280649041 0.10173076923076918 Q 0.8694424203725963 0.12307692307692306 0.8694424203725963 0.16115384615384612 L 0.8694424203725963 0.24615384615384614 Q 0.8694424203725963 0.2523076923076923 0.8719424203725964 0.25519230769230766 Q 0.8744424203725965 0.25807692307692304 0.8802116511418272 0.25846153846153846 L 0.8802116511418272 0.2846153846153846 Q 0.8752116511418272 0.28538461538461535 0.8715578049879811 0.2857692307692308 Q 0.8679039588341348 0.28615384615384615 0.8655962665264425 0.28615384615384615 Q 0.8536731896033656 0.28615384615384615 0.8477116511418272 0.2796153846153846 Q 0.8417501126802887 0.27307692307692305 0.8409808819110579 0.26576923076923076 L 0.8402116511418272 0.2530769230769231 Q 0.8271347280649041 0.26999999999999996 0.8059808819110579 0.2792307692307692 Q 0.7848270357572118 0.28846153846153844 0.764057804987981 0.28846153846153844 Q 0.744057804987981 0.28846153846153844 0.7282885742187503 0.2801923076923077 Q 0.7125193434495195 0.27192307692307693 0.7036731896033656 0.2578846153846154 Q 0.6948270357572117 0.24384615384615382 0.6948270357572117 0.22653846153846152 M 0.8255962665264426 0.24076923076923074 Q 0.8302116511418272 0.23538461538461536 0.8329039588341349 0.2298076923076923 Q 0.8355962665264426 0.2242307692307692 0.8355962665264426 0.22038461538461535 L 0.8355962665264426 0.19538461538461538 Q 0.8236731896033657 0.19076923076923075 0.8105962665264426 0.18826923076923074 Q 0.7975193434495195 0.18576923076923074 0.7848270357572118 0.18576923076923074 Q 0.759057804987981 0.18576923076923074 0.7430962665264426 0.19596153846153844 Q 0.7271347280649041 0.20615384615384613 0.7271347280649041 0.22384615384615383 Q 0.7271347280649041 0.23346153846153844 0.7323270357572118 0.2425 Q 0.7375193434495194 0.25153846153846154 0.7477116511418271 0.2573076923076923 Q 0.7579039588341349 0.26307692307692304 0.7729039588341349 0.26307692307692304 Q 0.7886731896033656 0.26307692307692304 0.8029039588341349 0.2567307692307692 Q 0.8171347280649041 0.25038461538461537 0.8255962665264426 0.24076923076923074 M 1.029833233173077 0.11346153846153842 Q 1.0044486177884617 0.11384615384615382 0.9850255408653849 0.1263461538461538 Q 0.9656024639423079 0.1388461538461538 0.9575255408653848 0.16076923076923072 L 0.9575255408653848 0.2846153846153846 L 0.923679387019231 0.2846153846153846 L 0.923679387019231 0.08384615384615379 L 0.9552178485576925 0.08384615384615379 L 0.9552178485576925 0.13038461538461535 Q 0.9656024639423079 0.10961538461538459 0.9827178485576925 0.0967307692307692 Q 0.9998332331730772 0.08384615384615379 1.018679387019231 0.08230769230769228 Q 1.0225255408653848 0.08230769230769228 1.0252178485576926 0.08230769230769228 Q 1.0279101562500002 0.08230769230769228 1.029833233173077 0.08269230769230765 L 1.029833233173077 0.11346153846153842 M 1.1671317232572118 0.2746153846153846 Q 1.1629009540264426 0.2765384615384615 1.1555932617187503 0.2796153846153846 Q 1.1482855694110579 0.2826923076923077 1.1386701847956733 0.285 Q 1.1290548001802887 0.2873076923076923 1.118285569411058 0.2873076923076923 Q 1.1059778771033657 0.2873076923076923 1.0955932617187503 0.28288461538461535 Q 1.0852086463341348 0.2784615384615384 1.0790548001802887 0.2690384615384615 Q 1.0729009540264425 0.2596153846153846 1.0729009540264425 0.24538461538461537 L 1.0729009540264425 0.11038461538461536 L 1.0455932617187502 0.11038461538461536 L 1.0455932617187502 0.08384615384615379 L 1.0729009540264425 0.08384615384615379 L 1.0729009540264425 0.016923076923076874 L 1.1067471078725963 0.016923076923076874 L 1.1067471078725963 0.08384615384615379 L 1.1517471078725965 0.08384615384615379 L 1.1517471078725965 0.11038461538461536 L 1.1067471078725963 0.11038461538461536 L 1.1067471078725963 0.235 Q 1.1075163386418272 0.24576923076923074 1.1140548001802888 0.25096153846153846 Q 1.1205932617187502 0.2561538461538461 1.1294394155649041 0.2561538461538461 Q 1.1394394155649041 0.2561538461538461 1.1479009540264427 0.25269230769230766 Q 1.156362492487981 0.2492307692307692 1.1590548001802887 0.24769230769230768 L 1.1671317232572118 0.2746153846153846 M 1.267512394831731 0.28846153846153844 Q 1.242512394831731 0.28846153846153844 1.220589317908654 0.2801923076923077 Q 1.198666240985577 0.27192307692307693 1.1828970102163463 0.2553846153846154 L 1.1959739332932695 0.23153846153846153 Q 1.2132816256009618 0.24769230769230768 1.230589317908654 0.2546153846153846 Q 1.2478970102163465 0.2615384615384615 1.2659739332932693 0.2615384615384615 Q 1.2867431640625002 0.2615384615384615 1.2998200871394232 0.2536538461538461 Q 1.3128970102163464 0.24576923076923074 1.3128970102163464 0.23038461538461535 Q 1.3128970102163464 0.21923076923076923 1.3061662409855772 0.21384615384615382 Q 1.299435471754808 0.20846153846153842 1.2871277794471156 0.2048076923076923 Q 1.2748200871394233 0.20115384615384613 1.2578970102163463 0.1965384615384615 Q 1.2371277794471156 0.19038461538461537 1.2228970102163463 0.18346153846153845 Q 1.208666240985577 0.1765384615384615 1.2013585486778848 0.16615384615384612 Q 1.1940508563701926 0.15576923076923074 1.1940508563701926 0.13999999999999996 Q 1.1940508563701926 0.12076923076923074 1.2040508563701926 0.10749999999999996 Q 1.2140508563701924 0.0942307692307692 1.2315508563701925 0.08730769230769228 Q 1.2490508563701925 0.08038461538461533 1.271358548677885 0.08038461538461533 Q 1.293666240985577 0.08038461538461533 1.3117431640625001 0.08730769230769228 Q 1.3298200871394232 0.0942307692307692 1.3428970102163464 0.10769230769230764 L 1.327512394831731 0.13115384615384612 Q 1.315589317908654 0.11884615384615382 1.301358548677885 0.11288461538461536 Q 1.2871277794471156 0.1069230769230769 1.269435471754808 0.1069230769230769 Q 1.2590508563701925 0.1069230769230769 1.2490508563701925 0.10942307692307687 Q 1.2390508563701925 0.11192307692307688 1.232512394831731 0.11826923076923074 Q 1.2259739332932695 0.12461538461538457 1.2259739332932695 0.13615384615384613 Q 1.2259739332932695 0.14576923076923073 1.231166240985577 0.15134615384615382 Q 1.2363585486778847 0.1569230769230769 1.2465508563701926 0.16076923076923072 Q 1.2567431640625002 0.16461538461538458 1.271358548677885 0.16923076923076918 Q 1.2940508563701925 0.17576923076923073 1.3107816256009617 0.18230769230769228 Q 1.327512394831731 0.18884615384615383 1.3367431640625003 0.1992307692307692 Q 1.3459739332932694 0.2096153846153846 1.3459739332932694 0.22807692307692307 Q 1.3459739332932694 0.25653846153846155 1.324435471754808 0.27249999999999996 Q 1.3028970102163464 0.28846153846153844 1.267512394831731 0.28846153846153844" fill="#000000" fill-rule="nonzero"></path></g><g transform="matrix(1,0,0,1,0,0)"><g clip-path="url(#SvgjsClipPath1001)"><path d=" M -1.2313674793255769 -2.6502349586511538 L 1.2313674793255767 -2.6502349586511538 L 1.2313674793255767 -0.1875 L -1.2313674793255769 -0.1875 Z M -1.1657394407008965 -2.584606920026473 L -1.1657394407008965 -0.25312803862468036 L 1.1657394407008965 -0.25312803862468036 L 1.1657394407008965 -2.584606920026473 Z" fill="#000000" transform="matrix(1,0,0,1,0,0)" fill-rule="nonzero"></path><path d=" M 0.11980653245417061 -1.025739603340366 L 0.24245593178013503 -1.025739603340366 L 0.18722308969956825 -1.2028095970692423 L -0.1912843280878453 -1.2028095970692423 L -0.24651717016841201 -1.025739603340366 L -0.11655754174354899 -1.025739603340366 L -0.11655754174354899 -0.8031837396627883 L -0.5835999563954004 -0.8031837396627883 L -0.5835999563954004 -1.025739603340366 L -0.49181596882034095 -1.025739603340366 L -0.1563576779486633 -2.034551218988365 L 0.16935364079114956 -2.034551218988365 L 0.49750170256392845 -1.025739603340366 L 0.5868489471060218 -1.025739603340366 L 0.5868489471060218 -0.8031837396627883 L 0.11980653245417061 -0.8031837396627883 L 0.11980653245417061 -1.025739603340366 M -0.1271167615530691 -1.410745002549023 L 0.12143102780948134 -1.410745002549023 L -0.0036551145494493342 -1.811183107633132 L -0.1271167615530691 -1.410745002549023" fill="#000000" transform="matrix(1,0,0,1,0,0)" fill-rule="nonzero"></path></g></g></g><defs><clipPath id="SvgjsClipPath1001"><path d=" M -1.2313674793255769 -2.6502349586511538 h 2.4627349586511538 v 2.4627349586511538 h -2.4627349586511538 Z"></path></clipPath></defs></svg>